<svg id="Layer_1" data-name="Layer 1" xmlns="http://www.w3.org/2000/svg" width="8.9944in" height="5.3333in" viewBox="0 0 647.6 384"><title>forward</title><path d="M405.2,232.9,126.8,67.2A20.9931,20.9931,0,0,0,115.9,64,19.9528,19.9528,0,0,0,96.1,84H96V428h.1a19.9528,19.9528,0,0,0,19.8,20c4.1,0,7.5-1.4,11.2-3.4L405.2,279.1a30.1042,30.1042,0,0,0,0-46.2Z" transform="translate(-96 -64)"/><path d="M732.8,232.9,454.4,67.2A20.9931,20.9931,0,0,0,443.5,64a19.9528,19.9528,0,0,0-19.8,20h-.1V428h.1a19.9528,19.9528,0,0,0,19.8,20c4.1,0,7.5-1.4,11.2-3.4L732.8,279.1a30.1041,30.1041,0,0,0,0-46.2Z" transform="translate(-96 -64)"/></svg>